<svg xmlns="http://www.w3.org/2000/svg" width="1031" height="539" viewBox="0 0 1031 539"><defs><style>.a,.d{fill:none;}.a,.b{stroke:#7e57c2;stroke-width:5px;}.b{fill:#fff;}.c{stroke:none;}</style></defs><g transform="translate(-405 -217)"><line class="a" x1="449" y2="389" transform="translate(693 293)"/><line class="a" x1="214" y2="205" transform="translate(480 282)"/><line class="a" x1="220" y2="194" transform="translate(1142 481)"/><line class="a" x2="448" y2="389" transform="translate(693 292.5)"/><line class="a" x2="213" y2="184" transform="translate(480 497.5)"/><line class="a" x2="219" y2="195" transform="translate(1142 292)"/><g class="b" transform="translate(1286 412)"><circle class="c" cx="75" cy="75" r="75"/><circle class="d" cx="75" cy="75" r="70"/></g><g class="b" transform="translate(1066 217)"><circle class="c" cx="75" cy="75" r="75"/><circle class="d" cx="75" cy="75" r="70"/></g><g class="b" transform="translate(843 412)"><circle class="c" cx="75" cy="75" r="75"/><circle class="d" cx="75" cy="75" r="70"/></g><g class="b" transform="translate(1066 606)"><circle class="c" cx="75" cy="75" r="75"/><circle class="d" cx="75" cy="75" r="70"/></g><g class="b" transform="translate(405 422)"><circle class="c" cx="75" cy="75" r="75"/><circle class="d" cx="75" cy="75" r="70"/></g><g class="b" transform="translate(618 217)"><circle class="c" cx="75" cy="75" r="75"/><circle class="d" cx="75" cy="75" r="70"/></g><g class="b" transform="translate(618 606)"><circle class="c" cx="75" cy="75" r="75"/><circle class="d" cx="75" cy="75" r="70"/></g></g></svg>